<?xml version="1.0" encoding="utf-8"?>
<!-- Generator: Adobe Illustrator 16.0.0, SVG Export Plug-In . SVG Version: 6.00 Build 0)  -->
<!DOCTYPE svg PUBLIC "-//W3C//DTD SVG 1.1//EN" "http://www.w3.org/Graphics/SVG/1.1/DTD/svg11.dtd">
<svg version="1.1" id="Calque_1" xmlns="http://www.w3.org/2000/svg" xmlns:xlink="http://www.w3.org/1999/xlink" x="0px" y="0px"
	 width="20px" height="20px" viewBox="0 0 20 20" enable-background="new 0 0 20 20" xml:space="preserve">
<path id="pinterest-icon" fill="#F2F2F2" d="M10.352,2.5c-4.094,0-6.157,2.935-6.157,5.382c0,1.482,0.561,2.8,1.764,3.292
	c0.197,0.08,0.375,0.002,0.433-0.217c0.039-0.151,0.134-0.533,0.176-0.692c0.058-0.215,0.035-0.292-0.123-0.48
	C6.095,9.376,5.874,8.846,5.874,8.096c0-2.178,1.629-4.126,4.241-4.126c2.314,0,3.586,1.413,3.586,3.301
	c0,2.484-1.101,4.582-2.732,4.582c-0.901,0-1.576-0.746-1.359-1.661c0.259-1.091,0.76-2.269,0.76-3.057
	c0-0.705-0.378-1.292-1.162-1.292c-0.921,0-1.662,0.953-1.662,2.229c0,0.813,0.275,1.363,0.275,1.363s-0.942,3.995-1.108,4.695
	c-0.329,1.394-0.049,3.103-0.026,3.274c0.015,0.103,0.146,0.127,0.205,0.049c0.086-0.11,1.184-1.466,1.557-2.818
	c0.105-0.385,0.606-2.368,0.606-2.368c0.298,0.571,1.174,1.073,2.104,1.073c2.771,0,4.648-2.525,4.648-5.905
	C15.806,4.879,13.641,2.5,10.352,2.5z"/>
</svg>
