<?xml version="1.0" encoding="utf-8"?>
<!-- Generator: Adobe Illustrator 16.0.0, SVG Export Plug-In . SVG Version: 6.00 Build 0)  -->
<!DOCTYPE svg PUBLIC "-//W3C//DTD SVG 1.1//EN" "http://www.w3.org/Graphics/SVG/1.1/DTD/svg11.dtd">
<svg version="1.1" id="Calque_1" xmlns="http://www.w3.org/2000/svg" xmlns:xlink="http://www.w3.org/1999/xlink" x="0px" y="0px"
	 width="20px" height="20px" viewBox="0 0 20 20" enable-background="new 0 0 20 20" xml:space="preserve">
<path id="linkedin-icon" fill="#F2F2F2" d="M6.675,5.099c0,0.884-0.71,1.599-1.586,1.599S3.503,5.981,3.503,5.099
	S4.213,3.5,5.089,3.5S6.675,4.216,6.675,5.099z M6.443,7.833H3.76V16.5h2.683V7.833z M10.731,7.833H8.16V16.5h2.572
	c0,0,0-3.215,0-4.549c0-1.219,0.562-1.944,1.635-1.944c0.987,0,1.461,0.697,1.461,1.944c0,1.246,0,4.549,0,4.549h2.669
	c0,0,0-3.166,0-5.488c0-2.321-1.314-3.443-3.153-3.443C11.505,7.568,10.731,9,10.731,9V7.833L10.731,7.833z"/>
</svg>
