<?xml version="1.0" encoding="utf-8"?>
<!-- Generator: Adobe Illustrator 16.0.0, SVG Export Plug-In . SVG Version: 6.00 Build 0)  -->
<!DOCTYPE svg PUBLIC "-//W3C//DTD SVG 1.1//EN" "http://www.w3.org/Graphics/SVG/1.1/DTD/svg11.dtd">
<svg version="1.1" id="Calque_1" xmlns="http://www.w3.org/2000/svg" xmlns:xlink="http://www.w3.org/1999/xlink" x="0px" y="0px"
	 width="20px" height="20px" viewBox="0 0 20 20" enable-background="new 0 0 20 20" xml:space="preserve">
<path id="flickr-icon" fill="#F2F2F2" d="M13.537,6.038c-1.545,0-2.883,0.884-3.537,2.173C9.346,6.921,8.008,6.038,6.463,6.038
	C4.275,6.038,2.5,7.811,2.5,10c0,2.189,1.774,3.962,3.963,3.962c1.545,0,2.883-0.885,3.537-2.174
	c0.654,1.289,1.992,2.174,3.537,2.174c2.188,0,3.963-1.773,3.963-3.962C17.5,7.811,15.726,6.038,13.537,6.038z M13.537,12.904
	c-1.602,0-2.905-1.303-2.905-2.905c0-1.603,1.304-2.907,2.905-2.907c1.603,0,2.906,1.304,2.906,2.907
	C16.443,11.602,15.14,12.904,13.537,12.904z"/>
</svg>
