<?xml version="1.0" encoding="utf-8"?>
<!-- Generator: Adobe Illustrator 16.0.0, SVG Export Plug-In . SVG Version: 6.00 Build 0)  -->
<!DOCTYPE svg PUBLIC "-//W3C//DTD SVG 1.1//EN" "http://www.w3.org/Graphics/SVG/1.1/DTD/svg11.dtd">
<svg version="1.1" id="Calque_1" xmlns="http://www.w3.org/2000/svg" xmlns:xlink="http://www.w3.org/1999/xlink" x="0px" y="0px"
	 width="20px" height="20px" viewBox="0 0 20 20" enable-background="new 0 0 20 20" xml:space="preserve">
<g id="google-plus-icon">
	<path fill="#F2F2F2" d="M17.5,5.826h-1.989v1.988h-0.993V5.826h-1.989V4.832h1.989V2.844h0.993v1.988H17.5V5.826z M11.878,14.051
		c0,1.489-1.361,3.305-4.786,3.305c-2.504,0-4.592-1.079-4.592-2.897c0-1.402,0.887-3.221,5.036-3.221
		c-0.617-0.503-0.768-1.205-0.391-1.966c-2.43,0-3.673-1.428-3.673-3.241c0-1.774,1.319-3.386,4.01-3.386c0.68,0,4.312,0,4.312,0
		l-0.964,1.01H9.699c0.797,0.459,1.222,1.399,1.222,2.438c0,0.954-0.523,1.726-1.273,2.305c-1.329,1.027-0.988,1.602,0.403,2.617
		C11.424,12.042,11.878,12.835,11.878,14.051z M9.189,6.157C8.988,4.632,7.995,3.381,6.834,3.345
		C5.672,3.311,4.893,4.478,5.093,6.004C5.295,7.53,6.397,8.596,7.561,8.63C8.722,8.665,9.39,7.684,9.189,6.157z M10.387,14.204
		c0-1.255-1.146-2.451-3.064-2.451c-1.731-0.018-3.198,1.094-3.198,2.384c0,1.315,1.25,2.413,2.98,2.413
		C9.318,16.548,10.387,15.52,10.387,14.204z"/>
</g>
</svg>
