<?xml version="1.0" encoding="utf-8"?>
<!-- Generator: Adobe Illustrator 16.0.0, SVG Export Plug-In . SVG Version: 6.00 Build 0)  -->
<!DOCTYPE svg PUBLIC "-//W3C//DTD SVG 1.1//EN" "http://www.w3.org/Graphics/SVG/1.1/DTD/svg11.dtd">
<svg version="1.1" id="Layer_1" xmlns="http://www.w3.org/2000/svg" xmlns:xlink="http://www.w3.org/1999/xlink" x="0px" y="0px"
	 width="20px" height="20px" viewBox="0 0 20 20" enable-background="new 0 0 20 20" xml:space="preserve">
<g>
	<g>
		<circle fill="#F2F2F2" cx="5.541" cy="10.765" r="0.741"/>
		<circle fill="#F2F2F2" cx="14.459" cy="10.765" r="0.74"/>
		<g>
			<path fill="#F2F2F2" d="M3.995,9.218c-0.414,0.414-0.641,0.962-0.641,1.547c0,0.584,0.227,1.133,0.641,1.546
				c0.412,0.413,0.961,0.641,1.546,0.641c1.206,0,2.187-0.98,2.187-2.187c0-1.207-0.98-2.188-2.187-2.188
				C4.956,8.577,4.407,8.805,3.995,9.218z M4.469,11.837c-0.287-0.287-0.444-0.667-0.444-1.072s0.157-0.787,0.444-1.072
				c0.286-0.286,0.667-0.445,1.072-0.445c0.837,0,1.517,0.68,1.517,1.518c0,0.835-0.68,1.516-1.517,1.516
				C5.136,12.28,4.755,12.123,4.469,11.837z"/>
		</g>
		<g>
			<path fill="#F2F2F2" d="M12.912,9.218c-0.412,0.414-0.64,0.962-0.64,1.547c0,0.584,0.228,1.133,0.64,1.546
				c0.414,0.413,0.963,0.641,1.547,0.641c1.206,0,2.187-0.98,2.187-2.187c0-1.207-0.98-2.188-2.187-2.188
				C13.875,8.577,13.326,8.805,12.912,9.218z M13.387,11.837c-0.286-0.287-0.443-0.667-0.443-1.072s0.157-0.787,0.443-1.072
				c0.287-0.286,0.667-0.445,1.072-0.445c0.836,0,1.516,0.68,1.516,1.518c0,0.835-0.68,1.516-1.516,1.516
				C14.054,12.28,13.674,12.123,13.387,11.837z"/>
		</g>
		<g>
			<path fill="none" d="M14.459,7.106c-2.017,0-3.657,1.641-3.657,3.658c0,2.016,1.641,3.657,3.657,3.657
				c2.016,0,3.657-1.641,3.657-3.657C18.116,8.747,16.475,7.106,14.459,7.106z"/>
			<path fill="none" d="M5.541,7.106c-2.017,0-3.657,1.641-3.657,3.658c0,2.016,1.641,3.657,3.657,3.657s3.658-1.642,3.658-3.657
				C9.199,8.747,7.558,7.106,5.541,7.106z"/>
			<path fill="#F2F2F2" d="M17.981,7.889c0.172-0.511,0.436-1.113,0.797-1.476H15.79c-0.049-0.016-0.101-0.025-0.15-0.039
				c-0.163-0.254-1.273-1.689-5.717-1.689c-4.875,0-5.739,1.729-5.739,1.729H1.067C1.464,6.811,1.741,7.495,1.91,8.032
				c-0.575,0.762-0.92,1.706-0.92,2.732c0,2.509,2.041,4.55,4.551,4.551c1.391,0,2.637-0.629,3.472-1.616l1.033,1.446l0.892-1.503
				c0.836,1.02,2.104,1.673,3.521,1.673c2.51,0,4.551-2.042,4.551-4.551C19.01,9.675,18.624,8.673,17.981,7.889z M5.541,14.422
				c-2.017,0-3.657-1.642-3.657-3.657c0-2.018,1.641-3.658,3.657-3.658s3.658,1.641,3.658,3.658
				C9.199,12.78,7.558,14.422,5.541,14.422z M14.459,14.422c-2.017,0-3.657-1.642-3.657-3.657c0-2.018,1.641-3.658,3.657-3.658
				c2.016,0,3.657,1.641,3.657,3.658C18.116,12.781,16.475,14.422,14.459,14.422z"/>
		</g>
		<path fill="#FFFFFF" d="M10.201,5.21c3.115,0,4.288,1.296,4.288,1.296s-3.332-0.556-4.443,3.549
			C8.936,5.95,5.603,6.506,5.603,6.506S6.775,5.21,9.893,5.21H10.201z"/>
	</g>
</g>
</svg>
